<?xml version="1.0" standalone="no"?><!DOCTYPE svg PUBLIC "-//W3C//DTD SVG 1.1//EN" "http://www.w3.org/Graphics/SVG/1.1/DTD/svg11.dtd"><svg t="1546422743707" class="icon" style="" viewBox="0 0 1024 1024" version="1.1" xmlns="http://www.w3.org/2000/svg" p-id="3748" xmlns:xlink="http://www.w3.org/1999/xlink" width="16" height="16"><defs><style type="text/css"></style></defs><path d="M999.936 381.212444L555.235556 67.299556A56.832 56.832 0 0 0 522.410667 56.888889h-20.764445c-11.776 0-23.210667 3.640889-32.824889 10.410667L24.120889 381.212444a56.775111 56.775111 0 0 0-24.064 46.478223V910.222222a56.888889 56.888889 0 0 0 56.888889 56.888889h910.222222a56.888889 56.888889 0 0 0 56.888889-56.888889V427.690667a56.888889 56.888889 0 0 0-24.064-46.478223zM910.222222 824.888889a28.444444 28.444444 0 0 1-28.444444 28.444444H455.111111V540.444444a28.444444 28.444444 0 0 0-28.444444-28.444444h-170.666667a28.444444 28.444444 0 0 0-28.444444 28.444444V853.333333H142.222222a28.444444 28.444444 0 0 1-28.444444-28.444444V471.893333c0-9.272889 4.494222-17.92 12.003555-23.267555L512 176.071111l386.161778 272.554667a28.444444 28.444444 0 0 1 12.060444 23.267555V824.888889z" fill="" p-id="3749"></path><path d="M768 512h-170.666667a28.444444 28.444444 0 0 0-28.444444 28.444444v56.888889a28.444444 28.444444 0 0 0 28.444444 28.444445h170.666667a28.444444 28.444444 0 0 0 28.444444-28.444445v-56.888889a28.444444 28.444444 0 0 0-28.444444-28.444444z" fill="" p-id="3750"></path></svg>