<?xml version="1.0" standalone="no"?><!DOCTYPE svg PUBLIC "-//W3C//DTD SVG 1.1//EN" "http://www.w3.org/Graphics/SVG/1.1/DTD/svg11.dtd"><svg t="1544605096875" class="icon" style="" viewBox="0 0 1024 1024" version="1.1" xmlns="http://www.w3.org/2000/svg" p-id="6301" xmlns:xlink="http://www.w3.org/1999/xlink" width="16" height="16"><defs><style type="text/css"></style></defs><path d="M922.685523 694.946682l-0.005117 0.002047-0.10847 0.013303L922.571936 142.78396c0-40.405245-32.872688-73.277934-73.277934-73.277934L176.107927 69.506027c-40.405245 0-73.277934 32.872688-73.277934 73.277934l0 736.001727c0 40.406269 32.872688 73.277934 73.277934 73.277934l498.732835 0-0.011256 0.099261L922.685523 694.946682zM672.701029 862.139565l-0.549515-126.794801c1.085728-26.399253 16.202007-43.415812 38.646182-43.415812 0.819668 0 1.655709 0.023536 2.485611 0.070608l124.030851 0.732687L672.701029 862.139565zM176.107927 889.25411c-5.77247 0-10.468422-4.695952-10.468422-10.468422L165.639504 142.78396c0-5.77247 4.695952-10.468422 10.468422-10.468422l673.186076 0c5.77247 0 10.468422 4.695952 10.468422 10.468422l0 488.482377-143.644561-2.013867c-1.77339-0.088004-3.559059-0.13303-5.320169-0.13303-56.814983 0-99.479689 44.089148-101.446483 104.83465l-0.022513 0.701988 1.918699 154.597007L176.107927 889.253086zM312.181045 334.707085l384.688429-1.046842c10.406001 0 28.263717-14.060227 28.263717-31.405267s-17.857716-31.405267-28.263717-31.405267l-384.688429 1.046842c-10.406001 0-28.263717 13.013385-28.263717 30.358425S301.775045 334.707085 312.181045 334.707085zM312.181045 498.004241l384.688429-1.046842c10.406001 0 28.263717-14.060227 28.263717-31.405267 0-17.344017-17.857716-31.405267-28.263717-31.405267l-384.688429 1.046842c-10.406001 0-28.263717 13.013385-28.263717 30.358425C283.917328 482.897172 301.775045 498.004241 312.181045 498.004241zM527.292288 606.865601 310.61027 606.865601c-14.741749 0-26.692942 14.060227-26.692942 31.405267s11.951193 31.405267 26.692942 31.405267l216.682018 0c14.741749 0 26.692942-14.060227 26.692942-31.405267S542.03506 606.865601 527.292288 606.865601z" p-id="6302"></path></svg>