<?xml version="1.0" standalone="no"?><!DOCTYPE svg PUBLIC "-//W3C//DTD SVG 1.1//EN" "http://www.w3.org/Graphics/SVG/1.1/DTD/svg11.dtd"><svg t="1544605422014" class="icon" style="" viewBox="0 0 1024 1024" version="1.1" xmlns="http://www.w3.org/2000/svg" p-id="9336" xmlns:xlink="http://www.w3.org/1999/xlink" width="16" height="16"><defs><style type="text/css"></style></defs><path d="M848.6 170.9H175.1c-49.6 0-90 40.4-90 90v501.8c0 49.6 40.4 90 90 90h673.5c49.6 0 90-40.4 90-90V260.9c0-49.6-40.4-90-90-90z m30 591.8c0 16.5-13.5 30-30 30H175.1c-16.5 0-30-13.5-30-30V260.9c0-16.5 13.5-30 30-30h673.5c16.5 0 30 13.5 30 30v501.8z" p-id="9337"></path><path d="M344.9 538.2c1.3 0 2.7 0.1 4 0.1s2.7 0 4-0.1c-1.3 0-2.7-0.1-4-0.1s-2.7 0.1-4 0.1zM262.7 412c0-47.6 38.7-86.3 86.3-86.3 47.6 0 86.3 38.7 86.3 86.3 0 46.4-36.8 84.3-82.8 86.2 25.1 0.5 48.9 6.2 70.4 16.1 31.7-23 52.4-60.3 52.4-102.3 0-69.6-56.6-126.3-126.3-126.3-69.6 0-126.3 56.6-126.3 126.3 0 42.1 20.7 79.4 52.4 102.3 21.5-9.9 45.3-15.7 70.4-16.1-46-1.9-82.8-39.8-82.8-86.2zM172 675c0 11 9 20 20 20s20-9 20-20c0-74.2 59.3-134.7 132.9-136.8-26-0.8-50.1-9.6-69.9-23.9-60.7 28.1-103 89.6-103 160.7z" p-id="9338"></path><path d="M345.4 498.2c1.2 0 2.3 0.1 3.5 0.1s2.3 0 3.5-0.1h-7zM422.8 514.3c-19.8 14.3-43.8 23.1-69.9 23.9 73.6 2.1 132.9 62.7 132.9 136.8 0 11 9 20 20 20s20-9 20-20c0-71.1-42.2-132.6-103-160.7z" p-id="9339"></path><path d="M352.4 498.2c-1.2 0-2.3 0.1-3.5 0.1s-2.3 0-3.5-0.1c-25.1 0.5-48.9 6.2-70.4 16.1 19.8 14.3 43.8 23.1 69.9 23.9 1.3 0 2.7-0.1 4-0.1s2.7 0 4 0.1c26-0.8 50.1-9.6 69.9-23.9-21.5-9.9-45.3-15.6-70.4-16.1zM807.7 321.3h-204c-11 0-20 9-20 20s9 20 20 20h204c11 0 20-9 20-20s-8.9-20-20-20zM807.7 550.1h-204c-11 0-20 9-20 20s9 20 20 20h204c11 0 20-9 20-20s-8.9-20-20-20zM807.7 440.7h-204c-11 0-20 9-20 20s9 20 20 20h204c11 0 20-9 20-20s-8.9-20-20-20zM807.7 655h-204c-11 0-20 9-20 20s9 20 20 20h204c11 0 20-9 20-20s-8.9-20-20-20z" p-id="9340"></path></svg>