<?xml version="1.0" standalone="no"?><!DOCTYPE svg PUBLIC "-//W3C//DTD SVG 1.1//EN" "http://www.w3.org/Graphics/SVG/1.1/DTD/svg11.dtd"><svg t="1546422982607" class="icon" style="" viewBox="0 0 1024 1024" version="1.1" xmlns="http://www.w3.org/2000/svg" p-id="6908" xmlns:xlink="http://www.w3.org/1999/xlink" width="16" height="16"><defs><style type="text/css"></style></defs><path d="M758.494 309.269c0-153.706-121.349-278.759-270.522-278.759-149.135 0-270.505 125.051-270.505 278.759 0 104.819 56.481 196.214 139.675 243.81-163.206 60.427-280.258 221.445-280.258 410.164 0 16.698 13.146 30.25 29.342 30.25 16.237 0 29.361-13.533 29.361-30.25 0-206.897 163.338-375.23 364.105-375.23 2.464 0 4.814-0.393 7.088-0.979 140.397-9.999 251.715-130.587 251.715-277.761M487.971 527.531c-116.778 0-211.782-97.892-211.782-218.261 0-120.349 95.006-218.243 211.782-218.243 116.795 0 211.802 97.892 211.802 218.243 0.021 120.369-95.006 218.261-211.802 218.261M544.27 685.59c0 16.681 13.161 30.25 29.361 30.25h344.113c16.237 0 29.361-13.549 29.361-30.25 0-16.698-13.124-30.25-29.361-30.25h-344.113c-16.197 0-29.361 13.549-29.361 30.25M917.739 779.040h-344.113c-16.197 0-29.361 13.533-29.361 30.267 0 16.698 13.161 30.25 29.361 30.25h344.113c16.237 0 29.361-13.533 29.361-30.25 0-16.735-13.124-30.267-29.361-30.267M917.739 917.866h-344.113c-16.197 0-29.361 13.533-29.361 30.25s13.161 30.25 29.361 30.25h344.113c16.237 0 29.361-13.533 29.361-30.25s-13.124-30.25-29.361-30.25z" p-id="6909"></path></svg>